<?xml version="1.0" encoding="UTF-8" standalone="no"?>
<!DOCTYPE svg PUBLIC "-//W3C//DTD SVG 1.1//EN" "http://www.w3.org/Graphics/SVG/1.1/DTD/svg11.dtd">
<svg width="100%" height="100%" viewBox="0 0 210 210" version="1.1" xmlns="http://www.w3.org/2000/svg" xmlns:xlink="http://www.w3.org/1999/xlink" xml:space="preserve" xmlns:serif="http://www.serif.com/" style="fill-rule:evenodd;clip-rule:evenodd;stroke-linejoin:round;stroke-miterlimit:2;">
    <rect id="icon" x="0" y="0" width="210" height="210" style="fill:none;"/>
    <g id="icon1" serif:id="icon">
        <g id="icon2" serif:id="icon">
            <g>
                <g transform="matrix(1.103265,0,0,1.091116,-6.480262,-19.05915)">
                    <path d="M181.165,49.604L181.165,177.794C181.165,186.638 174.064,193.818 165.317,193.818L36.774,193.818C28.028,193.818 20.927,186.638 20.927,177.794L20.927,49.604C20.927,40.761 28.028,33.581 36.774,33.581L165.317,33.581C174.064,33.581 181.165,40.761 181.165,49.604Z" style="fill:white;"/>
                </g>
                <g transform="matrix(1.103265,0,0,1.091116,-6.480262,-19.05915)">
                    <path d="M184.941,49.604L184.941,177.794C184.941,188.746 176.148,197.637 165.317,197.637L36.774,197.637C25.944,197.637 17.15,188.746 17.15,177.794L17.15,49.604C17.15,38.653 25.944,29.762 36.774,29.762L165.317,29.762C176.148,29.762 184.941,38.653 184.941,49.604ZM181.165,49.604C181.165,40.761 174.064,33.581 165.317,33.581L36.774,33.581C28.028,33.581 20.927,40.761 20.927,49.604L20.927,177.794C20.927,186.638 28.028,193.818 36.774,193.818L165.317,193.818C174.064,193.818 181.165,186.638 181.165,177.794L181.165,49.604Z" style="fill:rgb(128,128,128);"/>
                </g>
            </g>
            <g transform="matrix(0.669131,-0.743145,0.937637,0.844252,-94.157053,74.038306)">
                <path d="M40.088,163.224L40.151,74.948L69.108,74.948L69.108,140.274L221.375,140.274L221.375,163.224L40.151,163.279L40.151,163.224L40.088,163.224Z" style="fill:rgb(255,144,188);"/>
            </g>
        </g>
    </g>
</svg>
